<mxfile host="65bd71144e">
    <diagram id="lUxNhBO9xPnwKrD9-1cK" name="Page-1">
        <mxGraphModel dx="1082" dy="572" grid="1" gridSize="10" guides="1" tooltips="1" connect="1" arrows="1" fold="1" page="1" pageScale="1" pageWidth="850" pageHeight="1100" math="0" shadow="0">
            <root>
                <mxCell id="0"/>
                <mxCell id="1" parent="0"/>
                <mxCell id="2" value="" style="rounded=0;whiteSpace=wrap;html=1;labelBackgroundColor=#66B2FF;fontFamily=Helvetica;fontSize=15;fontColor=#141414;strokeColor=#141414;fillColor=#FFFFFF;" vertex="1" parent="1">
                    <mxGeometry x="850" y="517.5" width="440" height="667.5" as="geometry"/>
                </mxCell>
                <mxCell id="3" value="" style="rounded=0;whiteSpace=wrap;html=1;fontSize=16;strokeColor=#141414;align=left;" vertex="1" parent="1">
                    <mxGeometry x="880" y="875" width="380" height="170" as="geometry"/>
                </mxCell>
                <mxCell id="4" value="" style="rounded=0;whiteSpace=wrap;html=1;" vertex="1" parent="1">
                    <mxGeometry x="90" width="660" height="840" as="geometry"/>
                </mxCell>
                <mxCell id="5" value="Dream Pizza" style="rounded=0;whiteSpace=wrap;html=1;labelBackgroundColor=#FFFFFF;fontFamily=Helvetica;fontSize=15;fontColor=#141414;strokeColor=#141414;fillColor=#FFFFFF;align=left;" vertex="1" parent="1">
                    <mxGeometry x="90" width="660" height="30" as="geometry"/>
                </mxCell>
                <mxCell id="6" value="" style="ellipse;whiteSpace=wrap;html=1;aspect=fixed;strokeColor=#66B2FF;" vertex="1" parent="1">
                    <mxGeometry x="720" y="2.5" width="25" height="25" as="geometry"/>
                </mxCell>
                <mxCell id="7" value="" style="ellipse;whiteSpace=wrap;html=1;aspect=fixed;" vertex="1" parent="1">
                    <mxGeometry x="680" y="2.5" width="25" height="25" as="geometry"/>
                </mxCell>
                <mxCell id="8" value="" style="ellipse;whiteSpace=wrap;html=1;aspect=fixed;" vertex="1" parent="1">
                    <mxGeometry x="640" y="2.5" width="25" height="25" as="geometry"/>
                </mxCell>
                <mxCell id="9" value="&lt;font size=&quot;1&quot;&gt;&lt;b style=&quot;font-size: 19px&quot;&gt;Dream Pizza Ordering System&lt;/b&gt;&lt;/font&gt;" style="rounded=0;whiteSpace=wrap;html=1;strokeColor=#FFFFFF;" vertex="1" parent="1">
                    <mxGeometry x="270" y="40" width="280" height="60" as="geometry"/>
                </mxCell>
                <mxCell id="10" value="&lt;font style=&quot;font-size: 19px&quot;&gt;&lt;b&gt;Regular $8.50&lt;/b&gt;&lt;/font&gt;&lt;br&gt;&lt;ul&gt;&lt;div class=&quot;ListContainerWrapper SCXW170753221 BCX0&quot; style=&quot;margin: 0px ; padding: 0px ; position: relative ; font-size: 14.6667px ; text-align: left ; background-color: rgb(255 , 255 , 255)&quot;&gt;&lt;li&gt;&lt;span lang=&quot;EN-US&quot; class=&quot;TextRun SCXW170753221 BCX0&quot; style=&quot;background-color: transparent ; font-size: 11pt ; margin: 0px ; padding: 0px ; font-style: italic ; line-height: 18px ; font-weight: bold&quot;&gt;Cheese Pizza&lt;/span&gt;&lt;span class=&quot;EOP SCXW170753221 BCX0&quot; style=&quot;background-color: transparent ; font-size: 11pt ; margin: 0px ; padding: 0px ; line-height: 18px&quot;&gt;&amp;nbsp;&lt;/span&gt;&lt;br&gt;&lt;/li&gt;&lt;/div&gt;&lt;div class=&quot;ListContainerWrapper SCXW170753221 BCX0&quot; style=&quot;margin: 0px ; padding: 0px ; position: relative ; font-size: 14.6667px ; text-align: left ; background-color: rgb(255 , 255 , 255)&quot;&gt;&lt;li&gt;&lt;span lang=&quot;EN-US&quot; class=&quot;TextRun SCXW170753221 BCX0&quot; style=&quot;background-color: transparent ; font-size: 11pt ; margin: 0px ; padding: 0px ; font-style: italic ; line-height: 18px ; font-weight: bold&quot;&gt;BBQ Beef and Onion Pizza&lt;/span&gt;&lt;span class=&quot;EOP SCXW170753221 BCX0&quot; style=&quot;background-color: transparent ; font-size: 11pt ; margin: 0px ; padding: 0px ; line-height: 18px&quot;&gt;&amp;nbsp;&lt;/span&gt;&lt;br&gt;&lt;/li&gt;&lt;/div&gt;&lt;div class=&quot;ListContainerWrapper SCXW170753221 BCX0&quot; style=&quot;margin: 0px ; padding: 0px ; position: relative ; font-size: 14.6667px ; text-align: left ; background-color: rgb(255 , 255 , 255)&quot;&gt;&lt;li&gt;&lt;span lang=&quot;EN-US&quot; class=&quot;TextRun SCXW170753221 BCX0&quot; style=&quot;background-color: transparent ; font-size: 11pt ; margin: 0px ; padding: 0px ; font-style: italic ; line-height: 18px ; font-weight: bold&quot;&gt;Pepperoni Pizza&lt;/span&gt;&lt;span class=&quot;EOP SCXW170753221 BCX0&quot; style=&quot;background-color: transparent ; font-size: 11pt ; margin: 0px ; padding: 0px ; line-height: 18px&quot;&gt;&amp;nbsp;&lt;/span&gt;&lt;br&gt;&lt;/li&gt;&lt;/div&gt;&lt;div class=&quot;ListContainerWrapper SCXW170753221 BCX0&quot; style=&quot;margin: 0px ; padding: 0px ; position: relative ; font-size: 14.6667px ; text-align: left ; background-color: rgb(255 , 255 , 255)&quot;&gt;&lt;li&gt;&lt;span lang=&quot;EN-US&quot; class=&quot;TextRun SCXW170753221 BCX0&quot; style=&quot;background-color: transparent ; font-size: 11pt ; margin: 0px ; padding: 0px ; font-style: italic ; line-height: 18px ; font-weight: bold&quot;&gt;Cheezy Garlic Pizza&lt;/span&gt;&lt;span class=&quot;EOP SCXW170753221 BCX0&quot; style=&quot;background-color: transparent ; font-size: 11pt ; margin: 0px ; padding: 0px ; line-height: 18px&quot;&gt;&amp;nbsp;&lt;/span&gt;&lt;br&gt;&lt;/li&gt;&lt;/div&gt;&lt;div class=&quot;ListContainerWrapper SCXW170753221 BCX0&quot; style=&quot;margin: 0px ; padding: 0px ; position: relative ; font-size: 14.6667px ; text-align: left ; background-color: rgb(255 , 255 , 255)&quot;&gt;&lt;li&gt;&lt;span lang=&quot;EN-US&quot; class=&quot;TextRun SCXW170753221 BCX0&quot; style=&quot;background-color: transparent ; font-size: 11pt ; margin: 0px ; padding: 0px ; font-style: italic ; line-height: 18px ; font-weight: bold&quot;&gt;Veggie lover Pizza&lt;/span&gt;&lt;span class=&quot;EOP SCXW170753221 BCX0&quot; style=&quot;background-color: transparent ; font-size: 11pt ; margin: 0px ; padding: 0px ; line-height: 18px&quot;&gt;&amp;nbsp;&lt;/span&gt;&lt;br&gt;&lt;/li&gt;&lt;/div&gt;&lt;div class=&quot;ListContainerWrapper SCXW170753221 BCX0&quot; style=&quot;margin: 0px ; padding: 0px ; position: relative ; font-size: 14.6667px ; text-align: left ; background-color: rgb(255 , 255 , 255)&quot;&gt;&lt;li&gt;&lt;span lang=&quot;EN-US&quot; class=&quot;TextRun SCXW170753221 BCX0&quot; style=&quot;background-color: transparent ; font-size: 11pt ; margin: 0px ; padding: 0px ; font-style: italic ; line-height: 18px ; font-weight: bold&quot;&gt;Hot and Spicy Veggie Pizza&lt;/span&gt;&lt;/li&gt;&lt;li&gt;&lt;span lang=&quot;EN-US&quot; class=&quot;TextRun SCXW170753221 BCX0&quot; style=&quot;background-color: transparent ; font-size: 11pt ; margin: 0px ; padding: 0px ; font-style: italic ; line-height: 18px ; font-weight: bold&quot;&gt;Hawaiian Pizza&lt;/span&gt;&lt;/li&gt;&lt;/div&gt;&lt;/ul&gt;" style="rounded=0;whiteSpace=wrap;html=1;" vertex="1" parent="1">
                    <mxGeometry x="130" y="110" width="260" height="250" as="geometry"/>
                </mxCell>
                <mxCell id="11" value="&lt;font style=&quot;font-size: 19px&quot;&gt;&lt;b&gt;Gourmet $13.50&lt;/b&gt;&lt;/font&gt;&lt;span lang=&quot;EN-US&quot; class=&quot;TextRun SCXW220701128 BCX0&quot; style=&quot;background-color: transparent ; font-size: 11pt ; text-align: left ; margin: 0px ; padding: 0px ; font-style: italic ; line-height: 18px ; font-family: &amp;#34;calibri&amp;#34; , &amp;#34;calibri_embeddedfont&amp;#34; , &amp;#34;calibri_msfontservice&amp;#34; , sans-serif ; font-weight: bold&quot;&gt;&lt;br&gt;&lt;/span&gt;&lt;ul style=&quot;font-size: 17px&quot;&gt;&lt;li style=&quot;text-align: left&quot;&gt;&lt;b&gt;&lt;i&gt;&lt;span lang=&quot;EN-US&quot; class=&quot;TextRun SCXW220701128 BCX0&quot; style=&quot;background-color: transparent ; margin: 0px ; padding: 0px ; line-height: 18px ; font-family: &amp;#34;calibri&amp;#34; , &amp;#34;calibri_embeddedfont&amp;#34; , &amp;#34;calibri_msfontservice&amp;#34; , sans-serif&quot;&gt;Garlic Shrimp Pizza&lt;/span&gt;&lt;span class=&quot;EOP SCXW220701128 BCX0&quot; style=&quot;background-color: transparent ; text-align: left ; margin: 0px ; padding: 0px ; line-height: 18px ; font-family: &amp;#34;calibri&amp;#34; , &amp;#34;calibri_embeddedfont&amp;#34; , &amp;#34;calibri_msfontservice&amp;#34; , sans-serif&quot;&gt;&amp;nbsp;&lt;/span&gt;&lt;/i&gt;&lt;/b&gt;&lt;/li&gt;&lt;li style=&quot;text-align: left&quot;&gt;&lt;span class=&quot;EOP SCXW220701128 BCX0&quot; style=&quot;background-color: transparent ; text-align: left ; margin: 0px ; padding: 0px ; line-height: 18px ; font-family: &amp;#34;calibri&amp;#34; , &amp;#34;calibri_embeddedfont&amp;#34; , &amp;#34;calibri_msfontservice&amp;#34; , sans-serif&quot;&gt;&lt;b&gt;&lt;i&gt;Chicken Cranberry&lt;/i&gt;&lt;/b&gt;&lt;/span&gt;&lt;/li&gt;&lt;li style=&quot;text-align: left&quot;&gt;&lt;span class=&quot;EOP SCXW220701128 BCX0&quot; style=&quot;background-color: transparent ; text-align: left ; margin: 0px ; padding: 0px ; line-height: 18px ; font-family: &amp;#34;calibri&amp;#34; , &amp;#34;calibri_embeddedfont&amp;#34; , &amp;#34;calibri_msfontservice&amp;#34; , sans-serif&quot;&gt;&lt;b&gt;&lt;i&gt;Buffalo Chicken Pizza&lt;/i&gt;&lt;/b&gt;&lt;/span&gt;&lt;/li&gt;&lt;li style=&quot;text-align: left&quot;&gt;&lt;span class=&quot;EOP SCXW220701128 BCX0&quot; style=&quot;background-color: transparent ; text-align: left ; margin: 0px ; padding: 0px ; line-height: 18px ; font-family: &amp;#34;calibri&amp;#34; , &amp;#34;calibri_embeddedfont&amp;#34; , &amp;#34;calibri_msfontservice&amp;#34; , sans-serif&quot;&gt;&lt;b&gt;&lt;i&gt;Mega Meat lovers Pizza&lt;/i&gt;&lt;/b&gt;&lt;/span&gt;&lt;/li&gt;&lt;li style=&quot;text-align: left&quot;&gt;&lt;span class=&quot;EOP SCXW220701128 BCX0&quot; style=&quot;background-color: transparent ; text-align: left ; margin: 0px ; padding: 0px ; line-height: 18px ; font-family: &amp;#34;calibri&amp;#34; , &amp;#34;calibri_embeddedfont&amp;#34; , &amp;#34;calibri_msfontservice&amp;#34; , sans-serif&quot;&gt;&lt;b&gt;&lt;i&gt;Meat lovers Hot-dog stuffed Pizza&lt;/i&gt;&lt;/b&gt;&lt;/span&gt;&lt;/li&gt;&lt;/ul&gt;" style="rounded=0;whiteSpace=wrap;html=1;" vertex="1" parent="1">
                    <mxGeometry x="445" y="110" width="260" height="250" as="geometry"/>
                </mxCell>
                <mxCell id="12" value="&lt;font style=&quot;font-size: 15px&quot; color=&quot;#ffffff&quot;&gt;Cheese Pizza&lt;/font&gt;" style="rounded=1;whiteSpace=wrap;html=1;fontFamily=Helvetica;fontSize=17;align=left;fillColor=#696969;" vertex="1" parent="1">
                    <mxGeometry x="195" y="410" width="170" height="30" as="geometry"/>
                </mxCell>
                <mxCell id="13" value="" style="triangle;whiteSpace=wrap;html=1;fontFamily=Helvetica;fontSize=17;direction=south;" vertex="1" parent="1">
                    <mxGeometry x="335" y="420" width="20" height="20" as="geometry"/>
                </mxCell>
                <mxCell id="14" value="&lt;font style=&quot;font-size: 15px&quot; color=&quot;#ffffff&quot;&gt;Select a pizza&lt;/font&gt;" style="rounded=1;whiteSpace=wrap;html=1;fontFamily=Helvetica;fontSize=17;align=left;fillColor=#696969;" vertex="1" parent="1">
                    <mxGeometry x="195" y="487.5" width="170" height="30" as="geometry"/>
                </mxCell>
                <mxCell id="15" value="&lt;font style=&quot;font-size: 15px&quot; color=&quot;#ffffff&quot;&gt;Select a pizza&lt;/font&gt;" style="rounded=1;whiteSpace=wrap;html=1;fontFamily=Helvetica;fontSize=17;align=left;fillColor=#696969;" vertex="1" parent="1">
                    <mxGeometry x="195" y="710" width="170" height="30" as="geometry"/>
                </mxCell>
                <mxCell id="16" value="&lt;p style=&quot;line-height: 1.2&quot;&gt;Cheese Pizza&lt;/p&gt;&lt;p style=&quot;line-height: 1.2&quot;&gt;BBQ Beef and Onion Pizza&lt;/p&gt;&lt;p style=&quot;line-height: 1.2&quot;&gt;...&lt;br&gt;&lt;/p&gt;" style="rounded=1;whiteSpace=wrap;html=1;labelBackgroundColor=#FFFFFF;fontFamily=Helvetica;fontSize=15;fontColor=#141414;fillColor=#FFFFFF;align=left;" vertex="1" parent="1">
                    <mxGeometry x="185" y="530" width="190" height="150" as="geometry"/>
                </mxCell>
                <mxCell id="17" value="$8.50" style="rounded=0;whiteSpace=wrap;html=1;labelBackgroundColor=#FFFFFF;fontFamily=Helvetica;fontSize=15;fontColor=#141414;fillColor=#FFFFFF;strokeColor=#FFFFFF;" vertex="1" parent="1">
                    <mxGeometry x="510" y="400" width="120" height="60" as="geometry"/>
                </mxCell>
                <mxCell id="18" value="$0.00" style="rounded=0;whiteSpace=wrap;html=1;labelBackgroundColor=#FFFFFF;fontFamily=Helvetica;fontSize=15;fontColor=#141414;fillColor=#FFFFFF;strokeColor=#FFFFFF;" vertex="1" parent="1">
                    <mxGeometry x="510" y="480" width="120" height="60" as="geometry"/>
                </mxCell>
                <mxCell id="19" value="$0.00" style="rounded=0;whiteSpace=wrap;html=1;labelBackgroundColor=#FFFFFF;fontFamily=Helvetica;fontSize=15;fontColor=#141414;fillColor=#FFFFFF;strokeColor=#FFFFFF;" vertex="1" parent="1">
                    <mxGeometry x="510" y="680" width="120" height="60" as="geometry"/>
                </mxCell>
                <mxCell id="20" value="" style="triangle;whiteSpace=wrap;html=1;fontFamily=Helvetica;fontSize=17;direction=south;" vertex="1" parent="1">
                    <mxGeometry x="335" y="492.5" width="20" height="20" as="geometry"/>
                </mxCell>
                <mxCell id="21" value="" style="triangle;whiteSpace=wrap;html=1;fontFamily=Helvetica;fontSize=17;direction=south;" vertex="1" parent="1">
                    <mxGeometry x="335" y="715" width="20" height="20" as="geometry"/>
                </mxCell>
                <mxCell id="22" value="&lt;b&gt;NEXT&lt;/b&gt;" style="rounded=1;whiteSpace=wrap;html=1;labelBackgroundColor=#66B2FF;fontFamily=Helvetica;fontSize=15;fontColor=#141414;strokeColor=#3399FF;fillColor=#66B2FF;" vertex="1" parent="1">
                    <mxGeometry x="510" y="760" width="120" height="40" as="geometry"/>
                </mxCell>
                <mxCell id="23" value="" style="rounded=0;whiteSpace=wrap;html=1;labelBackgroundColor=#66B2FF;fontFamily=Helvetica;fontSize=15;fontColor=#141414;strokeColor=#141414;fillColor=#FFFFFF;" vertex="1" parent="1">
                    <mxGeometry x="850" y="2.5" width="440" height="240" as="geometry"/>
                </mxCell>
                <mxCell id="24" value="Dream Pizza" style="rounded=0;whiteSpace=wrap;html=1;labelBackgroundColor=#FFFFFF;fontFamily=Helvetica;fontSize=15;fontColor=#141414;strokeColor=#141414;fillColor=#FFFFFF;align=left;" vertex="1" parent="1">
                    <mxGeometry x="850" width="440" height="30" as="geometry"/>
                </mxCell>
                <mxCell id="25" value="" style="ellipse;whiteSpace=wrap;html=1;aspect=fixed;strokeColor=#66B2FF;" vertex="1" parent="1">
                    <mxGeometry x="1260" y="2.5" width="25" height="25" as="geometry"/>
                </mxCell>
                <mxCell id="26" value="" style="ellipse;whiteSpace=wrap;html=1;aspect=fixed;" vertex="1" parent="1">
                    <mxGeometry x="1220" y="2.5" width="25" height="25" as="geometry"/>
                </mxCell>
                <mxCell id="27" value="" style="ellipse;whiteSpace=wrap;html=1;aspect=fixed;" vertex="1" parent="1">
                    <mxGeometry x="1180" y="2.5" width="25" height="25" as="geometry"/>
                </mxCell>
                <mxCell id="28" value="" style="ellipse;whiteSpace=wrap;html=1;aspect=fixed;fillColor=#bac8d3;strokeColor=#23445d;" vertex="1" parent="1">
                    <mxGeometry x="992.5" y="150" width="15" height="15" as="geometry"/>
                </mxCell>
                <mxCell id="29" value="&lt;font size=&quot;1&quot;&gt;&lt;b style=&quot;font-size: 17px&quot;&gt;&lt;i&gt;Delivery&lt;/i&gt;&lt;/b&gt;&lt;/font&gt;" style="rounded=1;whiteSpace=wrap;html=1;" vertex="1" parent="1">
                    <mxGeometry x="1027.5" y="102.5" width="120" height="20" as="geometry"/>
                </mxCell>
                <mxCell id="30" value="&lt;b&gt;&lt;font style=&quot;font-size: 17px&quot;&gt;&lt;i&gt;Pick-Up&lt;/i&gt;&lt;/font&gt;&lt;/b&gt;" style="rounded=1;whiteSpace=wrap;html=1;" vertex="1" parent="1">
                    <mxGeometry x="1027.5" y="147.5" width="120" height="20" as="geometry"/>
                </mxCell>
                <mxCell id="31" value="" style="ellipse;whiteSpace=wrap;html=1;aspect=fixed;fillColor=#bac8d3;strokeColor=#23445d;" vertex="1" parent="1">
                    <mxGeometry x="992.5" y="105" width="15" height="15" as="geometry"/>
                </mxCell>
                <mxCell id="32" value="" style="rounded=0;whiteSpace=wrap;html=1;labelBackgroundColor=#66B2FF;fontFamily=Helvetica;fontSize=15;fontColor=#141414;strokeColor=#141414;fillColor=#FFFFFF;" vertex="1" parent="1">
                    <mxGeometry x="850" y="255" width="440" height="240" as="geometry"/>
                </mxCell>
                <mxCell id="33" value="Dream Pizza" style="rounded=0;whiteSpace=wrap;html=1;labelBackgroundColor=#FFFFFF;fontFamily=Helvetica;fontSize=15;fontColor=#141414;strokeColor=#141414;fillColor=#FFFFFF;align=left;" vertex="1" parent="1">
                    <mxGeometry x="850" y="252.5" width="440" height="30" as="geometry"/>
                </mxCell>
                <mxCell id="34" value="" style="ellipse;whiteSpace=wrap;html=1;aspect=fixed;strokeColor=#66B2FF;" vertex="1" parent="1">
                    <mxGeometry x="1260" y="255" width="25" height="25" as="geometry"/>
                </mxCell>
                <mxCell id="35" value="" style="ellipse;whiteSpace=wrap;html=1;aspect=fixed;" vertex="1" parent="1">
                    <mxGeometry x="1220" y="255" width="25" height="25" as="geometry"/>
                </mxCell>
                <mxCell id="36" value="" style="ellipse;whiteSpace=wrap;html=1;aspect=fixed;" vertex="1" parent="1">
                    <mxGeometry x="1180" y="255" width="25" height="25" as="geometry"/>
                </mxCell>
                <mxCell id="37" value="&lt;font size=&quot;1&quot;&gt;&lt;i style=&quot;font-size: 15px&quot;&gt;Name&lt;/i&gt;&lt;/font&gt;" style="rounded=1;whiteSpace=wrap;html=1;strokeColor=#FFFFFF;align=right;" vertex="1" parent="1">
                    <mxGeometry x="900" y="355" width="120" height="20" as="geometry"/>
                </mxCell>
                <mxCell id="38" value="&lt;font size=&quot;1&quot;&gt;&lt;i style=&quot;font-size: 15px&quot;&gt;Address&lt;/i&gt;&lt;/font&gt;" style="rounded=1;whiteSpace=wrap;html=1;strokeColor=#FFFFFF;align=right;" vertex="1" parent="1">
                    <mxGeometry x="900" y="395" width="120" height="20" as="geometry"/>
                </mxCell>
                <mxCell id="39" value="&lt;font size=&quot;1&quot;&gt;&lt;i style=&quot;font-size: 15px&quot;&gt;Phone Number&lt;/i&gt;&lt;/font&gt;" style="rounded=1;whiteSpace=wrap;html=1;strokeColor=#FFFFFF;align=right;" vertex="1" parent="1">
                    <mxGeometry x="900" y="435" width="120" height="20" as="geometry"/>
                </mxCell>
                <mxCell id="40" value="Mike" style="rounded=0;whiteSpace=wrap;html=1;fontSize=15;strokeColor=#141414;align=left;" vertex="1" parent="1">
                    <mxGeometry x="1040" y="355" width="210" height="20" as="geometry"/>
                </mxCell>
                <mxCell id="41" value="021 345 6789" style="rounded=0;whiteSpace=wrap;html=1;fontSize=15;strokeColor=#141414;align=left;" vertex="1" parent="1">
                    <mxGeometry x="1040" y="435" width="210" height="20" as="geometry"/>
                </mxCell>
                <mxCell id="42" value="45b Candice drive, Auckland" style="rounded=0;whiteSpace=wrap;html=1;fontSize=15;strokeColor=#141414;align=left;" vertex="1" parent="1">
                    <mxGeometry x="1040" y="395" width="210" height="20" as="geometry"/>
                </mxCell>
                <mxCell id="43" value="&lt;font size=&quot;1&quot;&gt;&lt;b style=&quot;font-size: 19px&quot;&gt;Dream Pizza Ordering System&lt;/b&gt;&lt;/font&gt;" style="rounded=0;whiteSpace=wrap;html=1;strokeColor=#FFFFFF;" vertex="1" parent="1">
                    <mxGeometry x="930" y="32.5" width="280" height="50" as="geometry"/>
                </mxCell>
                <mxCell id="44" value="&lt;font size=&quot;1&quot;&gt;&lt;b style=&quot;font-size: 19px&quot;&gt;Dream Pizza Ordering System&lt;/b&gt;&lt;/font&gt;" style="rounded=0;whiteSpace=wrap;html=1;strokeColor=#FFFFFF;" vertex="1" parent="1">
                    <mxGeometry x="930" y="305" width="280" height="40" as="geometry"/>
                </mxCell>
                <mxCell id="45" value="Dream Pizza" style="rounded=0;whiteSpace=wrap;html=1;labelBackgroundColor=#FFFFFF;fontFamily=Helvetica;fontSize=15;fontColor=#141414;strokeColor=#141414;fillColor=#FFFFFF;align=left;" vertex="1" parent="1">
                    <mxGeometry x="850" y="515" width="440" height="30" as="geometry"/>
                </mxCell>
                <mxCell id="46" value="" style="ellipse;whiteSpace=wrap;html=1;aspect=fixed;strokeColor=#66B2FF;" vertex="1" parent="1">
                    <mxGeometry x="1260" y="517.5" width="25" height="25" as="geometry"/>
                </mxCell>
                <mxCell id="47" value="" style="ellipse;whiteSpace=wrap;html=1;aspect=fixed;" vertex="1" parent="1">
                    <mxGeometry x="1220" y="517.5" width="25" height="25" as="geometry"/>
                </mxCell>
                <mxCell id="48" value="" style="ellipse;whiteSpace=wrap;html=1;aspect=fixed;" vertex="1" parent="1">
                    <mxGeometry x="1180" y="517.5" width="25" height="25" as="geometry"/>
                </mxCell>
                <mxCell id="49" value="&lt;font size=&quot;1&quot;&gt;&lt;i style=&quot;font-size: 15px&quot;&gt;Name&lt;/i&gt;&lt;/font&gt;" style="rounded=1;whiteSpace=wrap;html=1;strokeColor=#FFFFFF;align=right;" vertex="1" parent="1">
                    <mxGeometry x="895" y="925" width="120" height="20" as="geometry"/>
                </mxCell>
                <mxCell id="50" value="&lt;font size=&quot;1&quot;&gt;&lt;i style=&quot;font-size: 15px&quot;&gt;Address&lt;/i&gt;&lt;/font&gt;" style="rounded=1;whiteSpace=wrap;html=1;strokeColor=#FFFFFF;align=right;" vertex="1" parent="1">
                    <mxGeometry x="895" y="965" width="120" height="20" as="geometry"/>
                </mxCell>
                <mxCell id="51" value="&lt;font size=&quot;1&quot;&gt;&lt;i style=&quot;font-size: 15px&quot;&gt;Phone Number&lt;/i&gt;&lt;/font&gt;" style="rounded=1;whiteSpace=wrap;html=1;strokeColor=#FFFFFF;align=right;" vertex="1" parent="1">
                    <mxGeometry x="895" y="1005" width="120" height="20" as="geometry"/>
                </mxCell>
                <mxCell id="52" value="Mike Ox-Long" style="rounded=0;whiteSpace=wrap;html=1;fontSize=15;strokeColor=#141414;align=left;" vertex="1" parent="1">
                    <mxGeometry x="1035" y="925" width="210" height="20" as="geometry"/>
                </mxCell>
                <mxCell id="53" value="021 345 6789" style="rounded=0;whiteSpace=wrap;html=1;fontSize=15;strokeColor=#141414;align=left;" vertex="1" parent="1">
                    <mxGeometry x="1035" y="1005" width="210" height="20" as="geometry"/>
                </mxCell>
                <mxCell id="54" value="45b Candice drive, Auckland" style="rounded=0;whiteSpace=wrap;html=1;fontSize=15;strokeColor=#141414;align=left;" vertex="1" parent="1">
                    <mxGeometry x="1035" y="965" width="210" height="20" as="geometry"/>
                </mxCell>
                <mxCell id="55" value="&lt;font size=&quot;1&quot;&gt;&lt;b style=&quot;font-size: 19px&quot;&gt;Dream Pizza Ordering System&lt;/b&gt;&lt;/font&gt;" style="rounded=0;whiteSpace=wrap;html=1;strokeColor=#FFFFFF;" vertex="1" parent="1">
                    <mxGeometry x="930" y="567.5" width="280" height="40" as="geometry"/>
                </mxCell>
                <mxCell id="56" value="&lt;b&gt;Cancel Order&lt;/b&gt;" style="rounded=1;whiteSpace=wrap;html=1;labelBackgroundColor=#66B2FF;fontFamily=Helvetica;fontSize=15;fontColor=#141414;strokeColor=#3399FF;fillColor=#66B2FF;" vertex="1" parent="1">
                    <mxGeometry x="870" y="1125" width="120" height="40" as="geometry"/>
                </mxCell>
                <mxCell id="57" value="&lt;b&gt;Complete Order&lt;/b&gt;" style="rounded=1;whiteSpace=wrap;html=1;labelBackgroundColor=#66B2FF;fontFamily=Helvetica;fontSize=15;fontColor=#141414;strokeColor=#3399FF;fillColor=#66B2FF;" vertex="1" parent="1">
                    <mxGeometry x="1010" y="1125" width="120" height="40" as="geometry"/>
                </mxCell>
                <mxCell id="58" value="&lt;b&gt;Start Over&lt;/b&gt;" style="rounded=1;whiteSpace=wrap;html=1;labelBackgroundColor=#66B2FF;fontFamily=Helvetica;fontSize=15;fontColor=#141414;strokeColor=#3399FF;fillColor=#66B2FF;" vertex="1" parent="1">
                    <mxGeometry x="1147.5" y="1125" width="120" height="40" as="geometry"/>
                </mxCell>
                <mxCell id="59" value="&lt;span&gt;Order:&lt;/span&gt;&lt;br&gt;&lt;span&gt;Cheese Pizza&amp;nbsp;&lt;/span&gt;&lt;span&gt;&#9;&lt;span style=&quot;white-space: pre&quot;&gt;&#9;&lt;/span&gt;&lt;span style=&quot;white-space: pre&quot;&gt;&#9;&lt;/span&gt;&lt;/span&gt;&lt;span&gt;&#9;&lt;/span&gt;&lt;span&gt;&#9;&lt;/span&gt;&lt;span&gt;$8.50&lt;/span&gt;&lt;br&gt;&lt;span&gt;Hawaiian Pizza&amp;nbsp;&lt;/span&gt;&lt;span&gt;&#9;&lt;span style=&quot;white-space: pre&quot;&gt;&#9;&lt;/span&gt;&lt;span style=&quot;white-space: pre&quot;&gt;&#9;&lt;/span&gt;&lt;/span&gt;&lt;span&gt;&#9;&lt;/span&gt;&lt;span&gt;$8.50&lt;/span&gt;&lt;br&gt;&lt;span&gt;Garlic Shrimp Pizza&amp;nbsp;&lt;span style=&quot;white-space: pre&quot;&gt;&#9;&lt;/span&gt;&lt;/span&gt;&lt;span&gt;&#9;&lt;/span&gt;&lt;span&gt;$13.50&lt;/span&gt;&lt;br&gt;&lt;br&gt;&lt;span&gt;Delivery Fee&amp;nbsp;&lt;/span&gt;&lt;span&gt;&#9;&lt;span style=&quot;white-space: pre&quot;&gt;&#9;&lt;/span&gt;&lt;span style=&quot;white-space: pre&quot;&gt;&#9;&lt;/span&gt;&lt;span style=&quot;white-space: pre&quot;&gt;&#9;&lt;/span&gt;&lt;/span&gt;&lt;span&gt;&#9;&lt;/span&gt;&lt;span&gt;&#9;&lt;/span&gt;&lt;span&gt;$3.00&lt;/span&gt;&lt;br&gt;&lt;span&gt;Delivery Cost:&amp;nbsp;&lt;/span&gt;&lt;span&gt;&#9;&lt;span style=&quot;white-space: pre&quot;&gt;&#9;&lt;/span&gt;&lt;span style=&quot;white-space: pre&quot;&gt;&#9;&lt;/span&gt;&lt;/span&gt;&lt;span&gt;&#9;&lt;/span&gt;&lt;span&gt;&#9;&lt;/span&gt;&lt;span&gt;$33.50&lt;/span&gt;" style="rounded=0;whiteSpace=wrap;html=1;fontSize=16;strokeColor=#141414;align=left;" vertex="1" parent="1">
                    <mxGeometry x="880" y="630" width="380" height="165" as="geometry"/>
                </mxCell>
                <mxCell id="60" value="&lt;font style=&quot;font-size: 16px&quot;&gt;Customer Details&lt;/font&gt;" style="rounded=0;whiteSpace=wrap;html=1;fontFamily=Helvetica;fontSize=19;fontColor=default;strokeColor=#141414;fillColor=default;" vertex="1" parent="1">
                    <mxGeometry x="955" y="885" width="230" height="30" as="geometry"/>
                </mxCell>
                <mxCell id="61" value="&lt;b&gt;NEXT&lt;/b&gt;" style="rounded=1;whiteSpace=wrap;html=1;labelBackgroundColor=#66B2FF;fontFamily=Helvetica;fontSize=15;fontColor=#141414;strokeColor=#3399FF;fillColor=#66B2FF;" vertex="1" parent="1">
                    <mxGeometry x="1027.5" y="190" width="120" height="40" as="geometry"/>
                </mxCell>
                <mxCell id="62" value="" style="endArrow=none;html=1;" edge="1" parent="1">
                    <mxGeometry width="50" height="50" relative="1" as="geometry">
                        <mxPoint x="90" y="80" as="sourcePoint"/>
                        <mxPoint x="750" y="80" as="targetPoint"/>
                    </mxGeometry>
                </mxCell>
                <mxCell id="63" value="" style="endArrow=none;html=1;" edge="1" parent="1">
                    <mxGeometry width="50" height="50" relative="1" as="geometry">
                        <mxPoint x="90" y="390" as="sourcePoint"/>
                        <mxPoint x="750" y="390" as="targetPoint"/>
                    </mxGeometry>
                </mxCell>
                <mxCell id="64" value="" style="endArrow=none;html=1;" edge="1" parent="1">
                    <mxGeometry width="50" height="50" relative="1" as="geometry">
                        <mxPoint x="90" y="460" as="sourcePoint"/>
                        <mxPoint x="750" y="460" as="targetPoint"/>
                    </mxGeometry>
                </mxCell>
                <mxCell id="65" value="" style="endArrow=none;html=1;" edge="1" parent="1">
                    <mxGeometry width="50" height="50" relative="1" as="geometry">
                        <mxPoint x="90" y="690" as="sourcePoint"/>
                        <mxPoint x="750" y="690" as="targetPoint"/>
                    </mxGeometry>
                </mxCell>
                <mxCell id="66" value="" style="endArrow=none;html=1;" edge="1" parent="1">
                    <mxGeometry width="50" height="50" relative="1" as="geometry">
                        <mxPoint x="90" y="750" as="sourcePoint"/>
                        <mxPoint x="750" y="750" as="targetPoint"/>
                    </mxGeometry>
                </mxCell>
                <mxCell id="67" value="" style="endArrow=none;html=1;entryX=1.005;entryY=0.327;entryDx=0;entryDy=0;entryPerimeter=0;" edge="1" parent="1" target="23">
                    <mxGeometry width="50" height="50" relative="1" as="geometry">
                        <mxPoint x="850" y="80" as="sourcePoint"/>
                        <mxPoint x="1320" y="80" as="targetPoint"/>
                    </mxGeometry>
                </mxCell>
                <mxCell id="68" value="" style="endArrow=none;html=1;exitX=0.002;exitY=0.544;exitDx=0;exitDy=0;exitPerimeter=0;entryX=1;entryY=0.548;entryDx=0;entryDy=0;entryPerimeter=0;" edge="1" parent="1" source="23" target="23">
                    <mxGeometry width="50" height="50" relative="1" as="geometry">
                        <mxPoint x="800" y="130" as="sourcePoint"/>
                        <mxPoint x="1310" y="130" as="targetPoint"/>
                    </mxGeometry>
                </mxCell>
                <mxCell id="69" value="" style="endArrow=none;html=1;" edge="1" parent="1">
                    <mxGeometry width="50" height="50" relative="1" as="geometry">
                        <mxPoint x="850" y="180" as="sourcePoint"/>
                        <mxPoint x="1290" y="180" as="targetPoint"/>
                    </mxGeometry>
                </mxCell>
                <mxCell id="70" value="" style="endArrow=none;html=1;" edge="1" parent="1">
                    <mxGeometry width="50" height="50" relative="1" as="geometry">
                        <mxPoint x="850" y="345" as="sourcePoint"/>
                        <mxPoint x="1290" y="345" as="targetPoint"/>
                    </mxGeometry>
                </mxCell>
                <mxCell id="71" value="" style="endArrow=none;html=1;" edge="1" parent="1">
                    <mxGeometry width="50" height="50" relative="1" as="geometry">
                        <mxPoint x="850" y="390" as="sourcePoint"/>
                        <mxPoint x="1290" y="390" as="targetPoint"/>
                    </mxGeometry>
                </mxCell>
                <mxCell id="72" value="" style="endArrow=none;html=1;" edge="1" parent="1">
                    <mxGeometry width="50" height="50" relative="1" as="geometry">
                        <mxPoint x="850" y="424.5" as="sourcePoint"/>
                        <mxPoint x="1290" y="424.5" as="targetPoint"/>
                    </mxGeometry>
                </mxCell>
                <mxCell id="73" value="" style="endArrow=none;html=1;" edge="1" parent="1">
                    <mxGeometry width="50" height="50" relative="1" as="geometry">
                        <mxPoint x="850" y="470" as="sourcePoint"/>
                        <mxPoint x="1290" y="470" as="targetPoint"/>
                    </mxGeometry>
                </mxCell>
                <mxCell id="74" value="" style="endArrow=none;html=1;" edge="1" parent="1">
                    <mxGeometry width="50" height="50" relative="1" as="geometry">
                        <mxPoint x="850" y="604.5" as="sourcePoint"/>
                        <mxPoint x="1290" y="604.5" as="targetPoint"/>
                    </mxGeometry>
                </mxCell>
                <mxCell id="75" value="" style="endArrow=none;html=1;" edge="1" parent="1">
                    <mxGeometry width="50" height="50" relative="1" as="geometry">
                        <mxPoint x="850" y="830" as="sourcePoint"/>
                        <mxPoint x="1290" y="830" as="targetPoint"/>
                    </mxGeometry>
                </mxCell>
                <mxCell id="76" value="" style="endArrow=none;html=1;" edge="1" parent="1">
                    <mxGeometry width="50" height="50" relative="1" as="geometry">
                        <mxPoint x="850" y="1080" as="sourcePoint"/>
                        <mxPoint x="1290" y="1080" as="targetPoint"/>
                    </mxGeometry>
                </mxCell>
                <mxCell id="77" value="" style="endArrow=none;html=1;exitX=0.5;exitY=1;exitDx=0;exitDy=0;entryX=0.5;entryY=1;entryDx=0;entryDy=0;" edge="1" parent="1" source="5" target="4">
                    <mxGeometry width="50" height="50" relative="1" as="geometry">
                        <mxPoint x="100" y="90" as="sourcePoint"/>
                        <mxPoint x="760" y="90" as="targetPoint"/>
                    </mxGeometry>
                </mxCell>
                <mxCell id="81" value="" style="endArrow=none;html=1;entryX=0.343;entryY=0.999;entryDx=0;entryDy=0;entryPerimeter=0;exitX=0.334;exitY=1;exitDx=0;exitDy=0;exitPerimeter=0;" edge="1" parent="1" source="45" target="2">
                    <mxGeometry width="50" height="50" relative="1" as="geometry">
                        <mxPoint x="1000" y="600" as="sourcePoint"/>
                        <mxPoint x="1008" y="1180" as="targetPoint"/>
                    </mxGeometry>
                </mxCell>
                <mxCell id="82" value="" style="endArrow=none;html=1;entryX=0.343;entryY=0.999;entryDx=0;entryDy=0;entryPerimeter=0;exitX=0.652;exitY=1;exitDx=0;exitDy=0;exitPerimeter=0;" edge="1" parent="1" source="45">
                    <mxGeometry width="50" height="50" relative="1" as="geometry">
                        <mxPoint x="1140" y="610" as="sourcePoint"/>
                        <mxPoint x="1140.42" y="1185.0025" as="targetPoint"/>
                    </mxGeometry>
                </mxCell>
                <mxCell id="83" value="&lt;b&gt;Cancel Order&lt;/b&gt;" style="rounded=1;whiteSpace=wrap;html=1;labelBackgroundColor=#66B2FF;fontFamily=Helvetica;fontSize=15;fontColor=#141414;strokeColor=#3399FF;fillColor=#66B2FF;" vertex="1" parent="1">
                    <mxGeometry x="870" y="1125" width="120" height="40" as="geometry"/>
                </mxCell>
                <mxCell id="84" value="&lt;b&gt;Cancel Order&lt;/b&gt;" style="rounded=1;whiteSpace=wrap;html=1;labelBackgroundColor=#66B2FF;fontFamily=Helvetica;fontSize=15;fontColor=#141414;strokeColor=#3399FF;fillColor=#66B2FF;" vertex="1" parent="1">
                    <mxGeometry x="200" y="760" width="120" height="40" as="geometry"/>
                </mxCell>
            </root>
        </mxGraphModel>
    </diagram>
</mxfile>